<svg width="24" height="24" viewBox="0 0 24 24" fill="none" xmlns="http://www.w3.org/2000/svg">
<path d="M10 9C10 9.55228 9.55228 10 9 10C8.44772 10 8 9.55228 8 9C8 8.44772 8.44772 8 9 8C9.55228 8 10 8.44772 10 9ZM15 10C15.5523 10 16 9.55228 16 9C16 8.44772 15.5523 8 15 8C14.4477 8 14 8.44772 14 9C14 9.55228 14.4477 10 15 10ZM2 6C2 3.79086 3.79086 2 6 2H18C20.2092 2 22 3.79086 22 6V15C22 15.2652 21.8946 15.5196 21.7072 15.7071L15.7071 21.7072C15.5196 21.8946 15.2652 22 15 22H6C3.79086 22 2 20.2092 2 18V6ZM6 4C4.89544 4 4 4.89544 4 6V18C4 19.1046 4.89544 20 6 20H12V16.0206H11.9917C10.6359 16.0206 9.64848 15.3354 9.0413 14.727C8.73482 14.4198 8.5071 14.1154 8.35526 13.8874C8.27878 13.7725 8.22 13.6747 8.17872 13.6025C8.15804 13.5663 8.14166 13.5363 8.12954 13.5136L8.1145 13.4849L8.10936 13.4749L8.10738 13.471L8.1058 13.4678C7.8588 12.9738 8.05902 12.3732 8.553 12.1262C9.04676 11.8793 9.6471 12.0792 9.8943 12.5727C9.8978 12.5792 9.90488 12.5921 9.91544 12.6106C9.93662 12.6477 9.97152 12.7062 10.0199 12.7788C10.1178 12.9258 10.2646 13.1214 10.457 13.3142C10.8477 13.7058 11.356 14.0206 11.9917 14.0206C12.2036 14.0206 12.3987 13.9855 12.5797 13.9249C13.2814 12.7708 14.5507 12 16 12H20V6C20 4.89544 19.1046 4 18 4H6ZM20 14H16C14.8954 14 14 14.8954 14 16V20H14.5858L20 14.5858V14Z" fill="#111111" fill-opacity="0.25"/>
</svg>
