<svg width="390" height="24" viewBox="0 0 390 24" fill="none" xmlns="http://www.w3.org/2000/svg">
<path d="M26 9C26 9.55228 25.5523 10 25 10C24.4477 10 24 9.55228 24 9C24 8.44772 24.4477 8 25 8C25.5523 8 26 8.44772 26 9ZM31 10C31.5523 10 32 9.55228 32 9C32 8.44772 31.5523 8 31 8C30.4477 8 30 8.44772 30 9C30 9.55228 30.4477 10 31 10ZM18 6C18 3.79086 19.7909 2 22 2H34C36.2092 2 38 3.79086 38 6V15C38 15.2652 37.8946 15.5196 37.7072 15.7071L31.7071 21.7072C31.5196 21.8946 31.2652 22 31 22H22C19.7909 22 18 20.2092 18 18V6ZM22 4C20.8954 4 20 4.89544 20 6V18C20 19.1046 20.8954 20 22 20H28V16.0206H27.9917C26.6359 16.0206 25.6485 15.3354 25.0413 14.727C24.7348 14.4198 24.5071 14.1154 24.3553 13.8874C24.2788 13.7725 24.22 13.6747 24.1787 13.6025C24.158 13.5663 24.1417 13.5363 24.1295 13.5136L24.1145 13.4849L24.1094 13.4749L24.1074 13.471L24.1058 13.4678C23.8588 12.9738 24.059 12.3732 24.553 12.1262C25.0468 11.8793 25.6471 12.0792 25.8943 12.5727C25.8978 12.5792 25.9049 12.5921 25.9154 12.6106C25.9366 12.6477 25.9715 12.7062 26.0199 12.7788C26.1178 12.9258 26.2646 13.1214 26.457 13.3142C26.8477 13.7058 27.356 14.0206 27.9917 14.0206C28.2036 14.0206 28.3987 13.9855 28.5797 13.9249C29.2814 12.7708 30.5507 12 32 12H36V6C36 4.89544 35.1046 4 34 4H22ZM36 14H32C30.8954 14 30 14.8954 30 16V20H30.5858L36 14.5858V14Z" fill="#111111" fill-opacity="0.25"/>
<g clip-path="url(#clip0_3101_1560)">
<path d="M360.325 4.317C360.751 2.561 363.249 2.561 363.675 4.317C363.739 4.5808 363.864 4.82578 364.041 5.032C364.217 5.23822 364.44 5.39985 364.691 5.50375C364.941 5.60764 365.213 5.65085 365.484 5.62987C365.754 5.60889 366.016 5.5243 366.248 5.383C367.791 4.443 369.558 6.209 368.618 7.753C368.477 7.98466 368.392 8.24634 368.372 8.51677C368.351 8.78721 368.394 9.05877 368.498 9.30938C368.601 9.55999 368.763 9.78258 368.969 9.95905C369.175 10.1355 369.419 10.2609 369.683 10.325C371.439 10.751 371.439 13.249 369.683 13.675C369.419 13.7389 369.174 13.8642 368.968 14.0407C368.762 14.2172 368.6 14.4399 368.496 14.6907C368.392 14.9414 368.349 15.2132 368.37 15.4838C368.391 15.7544 368.476 16.0162 368.617 16.248C369.557 17.791 367.791 19.558 366.247 18.618C366.015 18.4769 365.754 18.3924 365.483 18.3715C365.213 18.3506 364.941 18.3938 364.691 18.4975C364.44 18.6013 364.217 18.7627 364.041 18.9687C363.864 19.1747 363.739 19.4194 363.675 19.683C363.249 21.439 360.751 21.439 360.325 19.683C360.261 19.4192 360.136 19.1742 359.959 18.968C359.783 18.7618 359.56 18.6001 359.309 18.4963C359.059 18.3924 358.787 18.3491 358.516 18.3701C358.246 18.3911 357.984 18.4757 357.752 18.617C356.209 19.557 354.442 17.791 355.382 16.247C355.523 16.0153 355.608 15.7537 355.628 15.4832C355.649 15.2128 355.606 14.9412 355.502 14.6906C355.399 14.44 355.237 14.2174 355.031 14.0409C354.825 13.8645 354.581 13.7391 354.317 13.675C352.561 13.249 352.561 10.751 354.317 10.325C354.581 10.2611 354.826 10.1358 355.032 9.95929C355.238 9.7828 355.4 9.56011 355.504 9.30935C355.608 9.05859 355.651 8.78683 355.63 8.51621C355.609 8.24559 355.524 7.98375 355.383 7.752C354.443 6.209 356.209 4.442 357.753 5.382C358.753 5.99 360.049 5.452 360.325 4.317Z" stroke="#6FCF97" stroke-width="2" stroke-linecap="round" stroke-linejoin="round"/>
<path d="M362 15C363.657 15 365 13.6569 365 12C365 10.3431 363.657 9 362 9C360.343 9 359 10.3431 359 12C359 13.6569 360.343 15 362 15Z" stroke="#6FCF97" stroke-width="2" stroke-linecap="round" stroke-linejoin="round"/>
</g>
<defs>
<clipPath id="clip0_3101_1560">
<rect width="24" height="24" fill="white" transform="translate(350)"/>
</clipPath>
</defs>
</svg>
